<svg width="387" height="354" viewBox="0 0 387 354" fill="none" xmlns="http://www.w3.org/2000/svg">
<path d="M191.572 43.7863C203.939 43.7863 213.963 55.8264 213.963 75.3731C213.963 116.413 191.572 207.68 191.572 207.68C191.572 207.68 169.181 116.413 169.181 75.3731C169.181 55.8264 179.207 43.7863 191.572 43.7863Z" fill="#05A1E6"/>
<path d="M208.508 16.9334C208.508 7.57337 200.925 3.43323e-05 191.572 3.43323e-05C182.219 3.43323e-05 174.636 7.57337 174.636 16.9334C174.636 26.28 182.219 33.8667 191.572 33.8667C200.925 33.8667 208.508 26.28 208.508 16.9334Z" fill="#176FC1"/>
<path d="M119.543 59.9196C129.608 55.853 141.727 62.3597 148.157 78.2663C161.652 111.666 173.444 193.333 173.444 193.333C173.444 193.333 125.2 126.4 111.705 92.9997C105.275 77.0797 109.476 63.9863 119.543 59.9196Z" fill="#4DC196"/>
<path d="M124.365 32.1599C121.289 24.5466 112.623 20.8665 105.009 23.9465C97.3946 27.0265 93.7159 35.6932 96.7933 43.3066C99.8693 50.9199 108.535 54.5998 116.149 51.5198C123.763 48.4398 127.441 39.7732 124.365 32.1599Z" fill="#3C9675"/>
<path d="M263.603 59.9196C253.536 55.853 241.417 62.3597 234.987 78.2663C221.492 111.666 209.7 193.333 209.7 193.333C209.7 193.333 257.944 126.4 271.439 92.9997C277.869 77.0797 273.668 63.9863 263.603 59.9196Z" fill="#D01F98"/>
<path d="M258.78 32.1599C261.856 24.5466 270.521 20.8665 278.136 23.9465C285.749 27.0265 289.428 35.6932 286.352 43.3066C283.276 50.9199 274.609 54.5998 266.996 51.5198C259.381 48.4398 255.703 39.7732 258.78 32.1599Z" fill="#811681"/>
<path d="M61.2294 107.253C67.9694 99.2263 81.5268 99.5063 94.6761 110.533C122.271 133.693 147.548 179.68 147.548 179.68C147.548 179.68 97.8641 162.773 70.2694 139.626C57.1201 128.586 54.4894 115.28 61.2294 107.253Z" fill="#FAB20B"/>
<path d="M53.1681 83.0933C47.5295 78.36 39.1255 79.0933 34.3948 84.7333C29.6642 90.3733 30.4002 98.7733 36.0375 103.507C41.6748 108.24 50.0802 107.507 54.8095 101.867C59.5402 96.2266 58.8055 87.8266 53.1681 83.0933Z" fill="#F47216"/>
<path d="M321.916 107.253C315.176 99.2263 301.617 99.5063 288.468 110.533C260.873 133.693 235.596 179.68 235.596 179.68C235.596 179.68 285.28 162.773 312.876 139.626C326.024 128.586 328.656 115.28 321.916 107.253Z" fill="#EC0677"/>
<path d="M329.977 83.0933C335.615 78.36 344.019 79.0933 348.749 84.7333C353.48 90.3733 352.745 98.7733 347.107 103.507C341.469 108.24 333.065 107.507 328.335 101.867C323.604 96.2266 324.34 87.8266 329.977 83.0933Z" fill="#B0064C"/>
<path d="M185.936 249.867C185.936 226.893 172.676 205.987 151.901 196.2C132.499 187.067 115.672 179.133 114.197 178.453C111.913 177.4 106.709 175.267 104.427 180.827C102.551 185.4 109.115 196.867 116.483 202.573C122.019 206.853 130.693 210.24 139.456 213.867C141.34 214.653 141.792 217.533 139.063 218.813L124.092 215.96C115.421 214.307 107.637 209.587 102.171 202.653L68.2067 159.587C66.1934 157.027 62.6574 155.987 59.7307 157.4C56.3187 159.04 54.9414 163.08 56.5094 166.427L76.6467 209.347C80.9867 218.6 86.9374 227 94.2227 234.16C104.724 244.48 117.708 251.893 131.915 255.76L185.936 270.267V249.867Z" fill="#E5B88C"/>
<path d="M127.921 243.96C112.249 239.693 97.9252 231.507 86.3399 220.12C82.6066 216.453 79.2079 212.48 76.1399 208.267L76.6466 209.347C80.9866 218.6 86.9372 227 94.2225 234.16C104.724 244.48 117.708 251.893 131.915 255.76L185.936 270.267V259.533L127.921 243.96Z" fill="#DAA582"/>
<path d="M197.209 249.867C197.209 226.893 210.469 205.987 231.244 196.2C250.645 187.067 267.472 179.133 268.947 178.453C271.231 177.4 276.435 175.267 278.719 180.827C280.593 185.4 274.029 196.867 266.663 202.573C261.125 206.853 252.451 210.24 243.689 213.867C241.804 214.653 241.352 217.533 244.083 218.813L259.052 215.96C267.723 214.307 275.507 209.587 280.973 202.653L314.939 159.587C316.951 157.027 320.487 155.987 323.415 157.4C326.825 159.04 328.204 163.08 326.635 166.427L306.497 209.347C302.159 218.6 296.207 227 288.921 234.16C278.42 244.48 265.436 251.893 251.229 255.76L197.209 270.267V249.867Z" fill="#E5B88C"/>
<path d="M255.223 243.96C270.895 239.693 285.22 231.507 296.805 220.12C300.537 216.453 303.937 212.48 307.004 208.267L306.497 209.347C302.159 218.6 296.207 227 288.921 234.16C278.42 244.48 265.436 251.893 251.229 255.76L197.209 270.267V259.533L255.223 243.96Z" fill="#DAA582"/>
<path d="M3.14812 323.59C3.14812 321.054 3.54164 318.693 4.32867 316.506C5.1157 314.276 6.23066 312.353 7.67355 310.735C9.16016 309.117 10.9528 307.849 13.0516 306.931C15.1503 306.013 17.5114 305.553 20.1349 305.553C23.3704 305.553 26.4311 306.144 29.3169 307.324L27.6116 313.817C26.6934 313.424 25.6441 313.096 24.4635 312.834C23.3267 312.571 22.1024 312.44 20.7907 312.44C17.6863 312.44 15.3252 313.424 13.7074 315.391C12.0897 317.315 11.2808 320.048 11.2808 323.59C11.2808 327 12.0459 329.711 13.5763 331.722C15.1066 333.69 17.6863 334.674 21.3154 334.674C22.6708 334.674 24.0044 334.542 25.3161 334.28C26.6279 334.018 27.7647 333.69 28.7266 333.296L29.8416 339.855C28.9671 340.292 27.6335 340.686 25.8408 341.035C24.0919 341.385 22.2773 341.56 20.3972 341.56C17.4677 341.56 14.9099 341.123 12.7237 340.248C10.5812 339.33 8.78851 338.084 7.34562 336.51C5.94645 334.892 4.89708 332.99 4.1975 330.804C3.49791 328.574 3.14812 326.169 3.14812 323.59ZM66.3032 323.524C66.3032 326.235 65.9097 328.705 65.1227 330.935C64.3356 333.165 63.2207 335.067 61.7778 336.641C60.3349 338.215 58.5859 339.44 56.5309 340.314C54.5196 341.188 52.2897 341.626 49.8412 341.626C47.3926 341.626 45.1627 341.188 43.1514 340.314C41.1401 339.44 39.413 338.215 37.9701 336.641C36.5272 335.067 35.3904 333.165 34.5597 330.935C33.7726 328.705 33.3791 326.235 33.3791 323.524C33.3791 320.813 33.7726 318.365 34.5597 316.178C35.3904 313.948 36.5272 312.046 37.9701 310.472C39.4567 308.898 41.2057 307.696 43.217 306.865C45.2283 305.991 47.4363 305.553 49.8412 305.553C52.246 305.553 54.454 305.991 56.4653 306.865C58.5204 307.696 60.2693 308.898 61.7122 310.472C63.1551 312.046 64.27 313.948 65.0571 316.178C65.8878 318.365 66.3032 320.813 66.3032 323.524ZM58.1706 323.524C58.1706 320.114 57.4273 317.425 55.9406 315.457C54.4978 313.446 52.4646 312.44 49.8412 312.44C47.2177 312.44 45.1627 313.446 43.6761 315.457C42.2332 317.425 41.5118 320.114 41.5118 323.524C41.5118 326.978 42.2332 329.711 43.6761 331.722C45.1627 333.734 47.2177 334.739 49.8412 334.739C52.4646 334.739 54.4978 333.734 55.9406 331.722C57.4273 329.711 58.1706 326.978 58.1706 323.524ZM80.7096 323.458C80.7096 326.956 81.5403 329.711 83.2018 331.722C84.8633 333.69 87.1588 334.674 90.0883 334.674C91.3563 334.674 92.4276 334.63 93.302 334.542C94.2202 334.411 94.9636 334.28 95.532 334.149V314.473C94.8324 313.992 93.8923 313.555 92.7118 313.161C91.5749 312.724 90.3507 312.506 89.039 312.506C86.1532 312.506 84.0326 313.489 82.6771 315.457C81.3654 317.425 80.7096 320.092 80.7096 323.458ZM103.468 339.658C101.894 340.139 99.9044 340.576 97.4995 340.97C95.1384 341.363 92.6462 341.56 90.0227 341.56C87.3119 341.56 84.8852 341.145 82.7427 340.314C80.6002 339.483 78.7638 338.303 77.2335 336.772C75.7469 335.198 74.5882 333.318 73.7575 331.132C72.9704 328.902 72.5769 326.41 72.5769 323.655C72.5769 320.944 72.9048 318.496 73.5607 316.31C74.2603 314.08 75.2659 312.178 76.5776 310.604C77.8894 309.03 79.4853 307.827 81.3654 306.996C83.2455 306.122 85.4099 305.685 87.8584 305.685C89.5199 305.685 90.9847 305.881 92.2527 306.275C93.5207 306.668 94.6138 307.106 95.532 307.587V291.125L103.468 289.813V339.658ZM121.55 340.708H113.614V306.406H121.55V340.708ZM122.403 296.371C122.403 297.858 121.922 299.039 120.96 299.913C119.998 300.788 118.861 301.225 117.549 301.225C116.194 301.225 115.035 300.788 114.073 299.913C113.111 299.039 112.63 297.858 112.63 296.371C112.63 294.841 113.111 293.639 114.073 292.764C115.035 291.89 116.194 291.453 117.549 291.453C118.861 291.453 119.998 291.89 120.96 292.764C121.922 293.639 122.403 294.841 122.403 296.371ZM131.674 307.521C133.205 307.084 135.194 306.668 137.643 306.275C140.091 305.881 142.802 305.685 145.775 305.685C148.574 305.685 150.913 306.078 152.793 306.865C154.673 307.609 156.16 308.68 157.253 310.079C158.39 311.434 159.177 313.096 159.614 315.063C160.095 316.987 160.335 319.108 160.335 321.425V340.708H152.4V322.671C152.4 320.835 152.268 319.283 152.006 318.015C151.787 316.703 151.394 315.654 150.825 314.867C150.301 314.036 149.557 313.446 148.596 313.096C147.677 312.702 146.541 312.506 145.185 312.506C144.179 312.506 143.13 312.571 142.037 312.702C140.944 312.834 140.135 312.943 139.61 313.03V340.708H131.674V307.521ZM176.27 322.671C176.27 326.038 176.992 328.509 178.435 330.083C179.921 331.613 181.823 332.378 184.14 332.378C185.408 332.378 186.589 332.203 187.682 331.853C188.819 331.504 189.737 331.088 190.437 330.607V312.834C189.868 312.702 189.169 312.593 188.338 312.506C187.507 312.374 186.458 312.309 185.19 312.309C182.304 312.309 180.096 313.271 178.566 315.195C177.035 317.075 176.27 319.567 176.27 322.671ZM198.373 337.231C198.373 342.697 196.973 346.698 194.175 349.234C191.421 351.77 187.179 353.038 181.451 353.038C179.353 353.038 177.298 352.863 175.286 352.513C173.319 352.163 171.526 351.704 169.908 351.136L171.351 344.38C172.707 344.949 174.237 345.408 175.942 345.758C177.691 346.107 179.571 346.282 181.583 346.282C184.774 346.282 187.048 345.626 188.404 344.315C189.759 343.003 190.437 341.057 190.437 338.478V337.166C189.65 337.559 188.6 337.953 187.289 338.346C186.021 338.74 184.556 338.937 182.894 338.937C180.708 338.937 178.697 338.587 176.86 337.887C175.068 337.188 173.516 336.16 172.204 334.805C170.936 333.449 169.93 331.766 169.187 329.755C168.487 327.7 168.138 325.339 168.138 322.671C168.138 320.179 168.509 317.884 169.253 315.785C170.04 313.686 171.154 311.893 172.597 310.407C174.084 308.92 175.877 307.762 177.975 306.931C180.074 306.1 182.457 305.685 185.124 305.685C187.704 305.685 190.153 305.881 192.47 306.275C194.787 306.668 196.755 307.084 198.373 307.521V337.231ZM206.567 323.59C206.567 321.054 206.96 318.693 207.747 316.506C208.534 314.276 209.649 312.353 211.092 310.735C212.579 309.117 214.371 307.849 216.47 306.931C218.569 306.013 220.93 305.553 223.554 305.553C226.789 305.553 229.85 306.144 232.736 307.324L231.03 313.817C230.112 313.424 229.063 313.096 227.882 312.834C226.745 312.571 225.521 312.44 224.209 312.44C221.105 312.44 218.744 313.424 217.126 315.391C215.508 317.315 214.699 320.048 214.699 323.59C214.699 327 215.465 329.711 216.995 331.722C218.525 333.69 221.105 334.674 224.734 334.674C226.089 334.674 227.423 334.542 228.735 334.28C230.047 334.018 231.183 333.69 232.145 333.296L233.26 339.855C232.386 340.292 231.052 340.686 229.259 341.035C227.511 341.385 225.696 341.56 223.816 341.56C220.886 341.56 218.328 341.123 216.142 340.248C214 339.33 212.207 338.084 210.764 336.51C209.365 334.892 208.316 332.99 207.616 330.804C206.917 328.574 206.567 326.169 206.567 323.59ZM251.472 335.133C253.921 335.133 255.779 335.002 257.047 334.739V325.951C256.61 325.82 255.976 325.688 255.145 325.557C254.314 325.426 253.396 325.36 252.39 325.36C251.516 325.36 250.619 325.426 249.701 325.557C248.827 325.688 248.018 325.929 247.275 326.279C246.575 326.628 246.007 327.131 245.569 327.787C245.132 328.399 244.913 329.186 244.913 330.148C244.913 332.028 245.504 333.34 246.684 334.083C247.865 334.783 249.461 335.133 251.472 335.133ZM250.816 305.553C253.44 305.553 255.648 305.881 257.44 306.537C259.233 307.193 260.654 308.111 261.703 309.292C262.797 310.472 263.562 311.915 263.999 313.621C264.48 315.282 264.72 317.118 264.72 319.13V339.92C263.496 340.183 261.638 340.489 259.146 340.839C256.697 341.232 253.921 341.429 250.816 341.429C248.761 341.429 246.881 341.232 245.176 340.839C243.471 340.445 242.006 339.811 240.782 338.937C239.601 338.062 238.661 336.925 237.961 335.526C237.306 334.127 236.978 332.4 236.978 330.345C236.978 328.377 237.349 326.716 238.093 325.36C238.88 324.005 239.929 322.912 241.241 322.081C242.552 321.207 244.061 320.595 245.766 320.245C247.515 319.851 249.33 319.654 251.21 319.654C252.084 319.654 253.002 319.72 253.964 319.851C254.926 319.939 255.954 320.114 257.047 320.376V319.064C257.047 318.146 256.938 317.272 256.719 316.441C256.5 315.61 256.107 314.889 255.538 314.276C255.014 313.621 254.292 313.118 253.374 312.768C252.5 312.418 251.385 312.243 250.029 312.243C248.193 312.243 246.509 312.374 244.979 312.637C243.449 312.899 242.203 313.205 241.241 313.555L240.257 307.128C241.263 306.778 242.727 306.428 244.651 306.078C246.575 305.728 248.63 305.553 250.816 305.553ZM293.983 313.555C293.328 313.336 292.409 313.118 291.229 312.899C290.092 312.637 288.758 312.506 287.228 312.506C286.354 312.506 285.414 312.593 284.408 312.768C283.446 312.943 282.768 313.096 282.375 313.227V340.708H274.439V308.046C275.969 307.477 277.871 306.953 280.145 306.472C282.462 305.947 285.02 305.685 287.818 305.685C288.343 305.685 288.955 305.728 289.655 305.816C290.354 305.86 291.054 305.947 291.754 306.078C292.453 306.166 293.131 306.297 293.787 306.472C294.443 306.603 294.967 306.734 295.361 306.865L293.983 313.555ZM320.436 313.555C319.78 313.336 318.862 313.118 317.681 312.899C316.544 312.637 315.211 312.506 313.68 312.506C312.806 312.506 311.866 312.593 310.86 312.768C309.898 312.943 309.22 313.096 308.827 313.227V340.708H300.891V308.046C302.421 307.477 304.323 306.953 306.597 306.472C308.914 305.947 311.472 305.685 314.271 305.685C314.795 305.685 315.407 305.728 316.107 305.816C316.807 305.86 317.506 305.947 318.206 306.078C318.905 306.166 319.583 306.297 320.239 306.472C320.895 306.603 321.419 306.734 321.813 306.865L320.436 313.555ZM325.441 323.721C325.441 320.704 325.878 318.059 326.753 315.785C327.671 313.511 328.873 311.631 330.36 310.145C331.847 308.614 333.552 307.477 335.476 306.734C337.4 305.947 339.367 305.553 341.379 305.553C346.101 305.553 349.774 307.018 352.397 309.948C355.064 312.877 356.398 317.25 356.398 323.065C356.398 323.502 356.376 324.005 356.332 324.573C356.332 325.098 356.31 325.579 356.267 326.016H333.639C333.858 328.771 334.82 330.913 336.525 332.444C338.274 333.93 340.788 334.674 344.068 334.674C345.991 334.674 347.74 334.499 349.314 334.149C350.932 333.799 352.2 333.427 353.118 333.034L354.168 339.527C353.731 339.746 353.118 339.986 352.331 340.248C351.588 340.467 350.714 340.664 349.708 340.839C348.746 341.057 347.697 341.232 346.56 341.363C345.423 341.495 344.264 341.56 343.084 341.56C340.067 341.56 337.443 341.123 335.213 340.248C332.984 339.33 331.147 338.084 329.704 336.51C328.261 334.892 327.19 333.012 326.491 330.87C325.791 328.683 325.441 326.3 325.441 323.721ZM348.462 320.179C348.462 319.086 348.309 318.059 348.003 317.097C347.697 316.091 347.238 315.238 346.625 314.539C346.057 313.795 345.336 313.227 344.461 312.834C343.63 312.396 342.625 312.178 341.444 312.178C340.22 312.178 339.149 312.418 338.23 312.899C337.312 313.336 336.525 313.927 335.869 314.67C335.257 315.413 334.776 316.266 334.426 317.228C334.077 318.19 333.836 319.173 333.705 320.179H348.462ZM384.356 313.555C383.7 313.336 382.782 313.118 381.602 312.899C380.465 312.637 379.131 312.506 377.601 312.506C376.726 312.506 375.786 312.593 374.781 312.768C373.819 312.943 373.141 313.096 372.748 313.227V340.708H364.812V308.046C366.342 307.477 368.244 306.953 370.518 306.472C372.835 305.947 375.393 305.685 378.191 305.685C378.716 305.685 379.328 305.728 380.028 305.816C380.727 305.86 381.427 305.947 382.126 306.078C382.826 306.166 383.504 306.297 384.159 306.472C384.815 306.603 385.34 306.734 385.734 306.865L384.356 313.555Z" fill="#656263"/>
</svg>
